<svg xmlns="http://www.w3.org/2000/svg" version="1.1" viewBox="0 0 400 327.2"><g fill-rule="evenodd" stroke="none"><path d="M130.769 8.636c-.54.241-2.445.752-4.234 1.136-1.79.384-3.336.83-3.437.992-.102.162-.987.531-1.966.822-.98.29-1.864.638-1.964.772-.1.134-1.25.607-2.556 1.05-1.305.444-2.373.91-2.373 1.038 0 .127-.773.486-1.72.797-.944.31-1.79.662-1.88.78-.096.118-.98.557-1.97.975-.99.418-1.874.862-1.964.987-.09.125-.826.488-1.635.807-.81.319-1.547.687-1.637.818-.09.131-.9.587-1.8 1.012-.9.425-1.71.858-1.802.962-.09.105-.749.483-1.464.841-.715.359-1.59.91-1.944 1.225-.354.315-.836.573-1.072.573-.236 0-.692.262-1.013.583-.32.32-1.168.858-1.882 1.193-.715.33-1.417.803-1.56 1.05-.145.241-.42.441-.612.441s-1.05.515-1.91 1.146c-.858.63-1.717 1.145-1.91 1.145-.193 0-.468.188-.612.417-.144.23-.704.693-1.244 1.03-.54.335-1.233.85-1.54 1.136-.306.29-1.323 1.04-2.26 1.672-.934.63-2.026 1.477-2.424 1.882-.398.405-.85.736-1 .736-.154 0-.65.378-1.109.84-.456.46-1.493 1.355-2.303 1.988-3.48 2.72-16.694 15.497-16.694 16.142.001.162-.42.637-.937 1.056-.517.418-1.216 1.202-1.554 1.742-.338.54-.946 1.25-1.352 1.578-.406.33-.74.722-.74.875 0 .25-.497.837-2.646 3.123-.344.366-.626.84-.626 1.052 0 .213-.258.526-.573.697-.315.17-.866.875-1.226 1.565-.36.691-.91 1.45-1.227 1.684-.316.236-.574.634-.574.885 0 .25-.197.574-.437.718-.239.144-1.199 1.44-2.133 2.88-.934 1.44-1.844 2.84-2.022 3.11-1.543 2.337-2.615 4.133-2.948 4.935-.218.526-.513.957-.656.957-.144 0-.514.663-.824 1.473-.31.81-.667 1.473-.795 1.473s-.51.626-.847 1.39c-.337.766-.765 1.5-.95 1.633-.216.154-.22.244-.01.25.204.006.197.102-.017.251-.402.28-3.09 5.73-3.09 6.264a.356.356 0 0 1-.348.361c-.19 0-.256.145-.144.325.11.18.066.328-.1.328s-.554.801-.862 1.78c-.308.98-.675 1.828-.815 1.883-.27.107-1.698 3.743-1.743 4.438-.015.225-.14.409-.276.409s-.496.847-.796 1.882c-.3 1.036-.65 1.956-.776 2.046-.126.09-.496 1.12-.823 2.292-.327 1.17-.675 2.348-.773 2.618-.098.271-.155.603-.126.738.03.135-.066.245-.21.245s-.54 1.142-.883 2.537c-.342 1.395-.71 2.611-.817 2.701-.276.231-1.907 6.697-2.767 10.966-.4 1.98-.815 3.822-.923 4.092-.108.27-.432 2.332-.72 4.583-.29 2.25-.676 4.943-.86 5.984-.185 1.04-.244 2.183-.132 2.537.114.354.071.644-.094.644-.543 0-.887 6.544-.887 16.857 0 10.314.343 16.858.886 16.858.165 0 .202.306.084.68-.12.375-.054 1.59.145 2.701.2 1.11.64 3.935.983 6.275.95 6.497 3.48 18.115 4.24 19.48.15.27.544 1.634.873 3.027.328 1.394.693 2.534.81 2.534.117 0 .225.184.24.41.046.671 1.445 5.294 1.711 5.648.135.18.515 1.211.843 2.29.33 1.081.68 2.04.782 2.13.1.089.215.31.253.49.154.73 1.53 4.3 1.893 4.91.214.36.584 1.281.82 2.046.238.765.565 1.39.727 1.39.16 0 .203.148.092.328-.112.18-.08.328.072.328s.474.67.716 1.49.623 1.675.847 1.898c.223.224.518.768.656 1.21.27.867 2.608 5.497 3.055 6.05.15.185.54 1.036.867 1.892.327.856.756 1.662.955 1.79.198.13.654.825 1.014 1.545s.838 1.504 1.064 1.742c.225.238.41.615.41.838 0 .224.28.708.625 1.077.344.368.952 1.317 1.352 2.107.4.79.93 1.555 1.176 1.7.247.143.45.412.45.597s.588 1.172 1.31 2.193c1.38 1.955 1.525 2.153 3.603 4.876.718.94 1.305 1.802 1.305 1.917 0 .114.368.497.818.85.45.355.818.8.818.993 0 .19.332.668.737 1.059.405.392 1.473 1.583 2.373 2.647 1.805 2.133 10.394 10.783 12.504 12.592 2.297 1.972 3.242 2.756 4.344 3.6a45.6 45.6 0 0 1 2.082 1.72c.559.495 1.11.9 1.227.9.115 0 .708.44 1.318.977.61.538 1.285.98 1.5.982.217.002.51.189.656.414.144.225.777.696 1.407 1.047.63.35 1.43.904 1.78 1.228.35.324.8.59 1.002.59.203.001.667.281 1.033.621.366.341 1.167.877 1.78 1.19.614.319 1.19.676 1.28.798.09.122.9.574 1.8 1.003.899.43 1.783.906 1.963 1.06.698.59 8.07 4.3 9.248 4.65.405.12.736.33.736.47 0 .137 1.03.594 2.29 1.015 1.262.42 2.293.868 2.293.994s.92.485 2.045.798c1.126.313 2.194.69 2.374.834.383.31 7.025 1.63 8.2 1.63.44.001.8.117.8.261 0 .142 1.915.53 4.256.86 2.34.33 4.255.73 4.255.886.001.414 1.56.35 1.821-.076.123-.198-.087-.677-.467-1.064-.664-.676-5.205-5.926-6.25-7.224a18.343 18.343 0 0 0-1.24-1.347c-.406-.395-.737-.847-.737-1.004 0-.157-.357-.656-.794-1.108-1.595-1.65-2.414-2.593-3.134-3.604a21.863 21.863 0 0 0-1.432-1.786c-.712-.77-1.235-1.377-3.805-4.42-.81-.96-2.019-2.35-2.685-3.088-.665-.74-1.506-1.692-1.868-2.116a122.264 122.264 0 0 0-7.869-8.358c-5.286-5.096-9.936-9.808-11.473-11.624-.81-.957-1.878-2.126-2.373-2.597-.494-.47-.899-1.042-.899-1.27 0-.23-.295-.6-.655-.825-.36-.225-.654-.584-.654-.797 0-.214-.332-.66-.737-.992-.406-.33-1.018-1.115-1.362-1.742-.344-.627-.83-1.36-1.08-1.63-.25-.27-1-1.38-1.666-2.464a508.287 508.287 0 0 0-1.619-2.62c-.224-.352-.773-1.332-1.22-2.174-.45-.843-.952-1.615-1.117-1.717-.165-.102-.565-.923-.889-1.824-.324-.9-.687-1.638-.807-1.638s-.483-.7-.807-1.555c-.323-.855-.768-1.85-.99-2.21-.22-.36-.657-1.464-.97-2.454-.316-.99-.684-1.948-.82-2.128-.136-.181-.518-1.212-.848-2.292-.33-1.08-.682-2.038-.782-2.128-.229-.206-1.637-5.938-1.637-6.662 0-.297-.13-.54-.288-.54-.16 0-.556-1.73-.882-3.845-.327-2.116-.692-3.92-.812-4.01-.958-.72-.948-18.353.012-18.985.32-.212.988-5.917.988-8.445 0-2.417.2-2.59 3.283-2.85l2.445-.205 2.69 4.218c4.876 7.642 5.92 10.275 9.912 24.958 5.335 19.625 8.111 23.562 17.593 24.944 3.346.487 3.26.618 2.002-3.053-1.18-3.444-1.376-7.726-.66-14.526 3.043-28.9-1.293-57.153-12-78.215-1.196-2.35-2.202-4.71-2.237-5.24-.035-.532-.26-1.121-.498-1.31-.24-.187-.728-.93-1.086-1.65-.359-.72-.743-1.383-.855-1.473-.112-.09-.448-.641-.748-1.226s-.736-1.063-.97-1.063c-.234 0-1.29-1.216-2.347-2.7-2.15-3.026-6.857-8.941-7.359-9.252-.18-.11-.327-.496-.327-.858 0-.408-1.71-2.374-4.5-5.176-2.476-2.484-4.72-4.794-4.993-5.133-1.604-2.01-2.863-4.074-3.27-5.361-.257-.81-.62-1.578-.807-1.707-.462-.316-.433-7.568.032-8.156.195-.247.626-1.332.957-2.412.33-1.081.78-2.146.998-2.368.217-.22.65-1.068.96-1.882.31-.813.67-1.48.798-1.48s.51-.625.85-1.39c.341-.765.88-1.677 1.197-2.026.317-.35.577-.775.577-.948 0-.173.515-1.091 1.145-2.04.631-.95 1.146-1.885 1.146-2.08 0-.194.111-.354.246-.354.138 0 .615-.7 1.063-1.554.448-.856 1.073-1.84 1.39-2.19.317-.35.576-.805.576-1.013 0-.206.258-.611.573-.9.315-.284.868-1.08 1.228-1.77.36-.683.912-1.53 1.227-1.88.315-.35.573-.743.573-.876s.19-.437.42-.675c.233-.238.78-1.022 1.22-1.742.436-.72 1.057-1.595 1.377-1.944.32-.35.584-.743.584-.877 0-.133.19-.436.42-.674.233-.238.778-1.022 1.21-1.742.436-.72.894-1.383 1.02-1.473.124-.09.821-.974 1.55-1.964 1.644-2.24 1.974-2.668 3.812-4.943.815-1.01 1.48-2.003 1.48-2.21 0-.207.127-.376.28-.376.152 0 .925-.82 1.717-1.825a98.441 98.441 0 0 1 2.2-2.701c.417-.481 1.301-1.537 1.963-2.346.663-.81 1.537-1.742 1.942-2.071.405-.331.736-.811.736-1.067a.48.48 0 0 1 .49-.467c.27 0 .491-.126.491-.28 0-.152 1.216-1.543 2.7-3.09a647.5 647.5 0 0 0 4.993-5.267c1.26-1.351 2.423-2.465 2.584-2.475.16-.01 1.486-1.187 2.946-2.617 4.01-3.928 6.155-5.91 6.394-5.91.12 0 .872-.587 1.674-1.304a77.952 77.952 0 0 1 2.277-1.96c1.995-1.606 3.082-2.517 3.82-3.202.435-.405.872-.737.971-.737.098 0 .57-.297 1.05-.66.478-.363 1.211-.915 1.627-1.227a24.227 24.227 0 0 0 1.374-1.123c.34-.306 1.066-.788 1.615-1.072 2.053-1.062 1.013-2.311-1.128-1.357m136.66.21c0 .394.313.78.77.955.421.16.973.49 1.226.734s1.418 1.144 2.588 2c2.028 1.486 2.618 1.95 4.864 3.832.538.45 1.452 1.186 2.03 1.636 2.377 1.846 4.153 3.356 5.585 4.748.832.809 1.607 1.472 1.723 1.472.277 0 6.913 6.38 9.843 9.464 1.268 1.334 3.41 3.583 4.76 4.997 1.35 1.414 3.045 3.248 3.765 4.075.72.828 1.86 2.095 2.536 2.817.676.72 1.229 1.404 1.23 1.517-.001.114.478.748 1.062 1.409a102.61 102.61 0 0 1 2.045 2.4 60.17 60.17 0 0 0 1.718 2.009c.405.443.737.888.737.99 0 .174 2.127 3.006 3.037 4.04.237.27.692.907 1.01 1.414.321.507.797 1.17 1.061 1.473.99 1.132 2.751 3.677 2.751 3.974.001.17.201.426.446.57.246.144.688.734.982 1.31.295.576.723 1.165.952 1.309.228.144.603.688.833 1.21.23.52.71 1.332 1.07 1.8 1.193 1.556 2.917 4.27 2.917 4.594 0 .175.196.436.436.58.24.145.782.963 1.204 1.818.422.855.871 1.555.997 1.555s.418.454.648 1.01c.23.555.587 1.18.793 1.39.206.21.712 1.082 1.124 1.937.41.855.861 1.555 1.001 1.555s.507.662.816 1.472c.31.81.68 1.473.823 1.473.144 0 .452.478.685 1.064.233.584.695 1.456 1.025 1.936.331.48.85 1.66 1.155 2.619.304.96.668 1.825.808 1.924 1.035.725 1.012 10.124-.026 10.766-.166.1-.565.847-.888 1.657-.323.81-.926 1.839-1.339 2.287-.414.447-.752.942-.752 1.099 0 .157-1.326 1.586-2.946 3.176s-2.946 3.062-2.946 3.272c0 .209-1.053 1.507-2.34 2.883-14.416 15.424-25.692 38.137-28.624 57.657-.122.81-.413 1.842-.647 2.292-.374.72-.573 1.365-1.01 3.273-.37 1.62-.632 5.812-.39 6.286.163.32.125 2.962-.09 6.219-.461 7.034-.197 21.496.544 29.72.673 7.447.522 10.05-.802 13.91-.556 1.619-1.01 2.98-1.01 3.028 0 .237 2.39.017 4.365-.4 7.852-1.665 10.978-5.707 14.813-19.156.693-2.43 1.448-4.537 1.68-4.68.23-.144.42-.594.42-1s.13-.875.291-1.046c.397-.423 1.671-5.75 1.671-6.99 0-2.967 3.018-9.89 7.15-16.397 3.36-5.294 2.806-4.863 5.688-4.43l2.363.356.414 3.755c.228 2.068.56 4.05.736 4.41 1.4 2.85 1.417 22.99.02 24.06-.116.09-.48 1.748-.81 3.684-.325 1.935-.684 3.52-.796 3.52-.11 0-.562 1.545-1 3.436-.44 1.889-.893 3.436-1.01 3.436-.116 0-.485.92-.82 2.045-.335 1.126-.7 2.12-.814 2.21-.112.09-.558 1.195-.99 2.455-.434 1.26-.888 2.365-1.01 2.456-.122.09-.483.827-.802 1.636-.32.81-.673 1.546-.79 1.636-.113.09-.56.9-.986 1.8-.428.9-.97 1.832-1.205 2.07-.235.238-.427.615-.427.838 0 .223-.258.692-.573 1.042-.315.35-.932 1.3-1.372 2.108-.44.81-.993 1.666-1.228 1.904s-.427.54-.427.674-.287.55-.636.925c-.35.376-.93 1.23-1.287 1.898-.358.668-.956 1.428-1.328 1.689-.373.26-.677.685-.677.944 0 .258-.294.653-.654.878-.36.225-.655.556-.655.736 0 .18-.36.698-.8 1.15-1.708 1.75-3.78 4.104-3.78 4.297-.003.276-7.57 7.817-7.845 7.817-.368 0-6.625 6.592-11.74 12.367-2.742 3.096-3.158 3.574-3.798 4.365-.347.43-1.378 1.66-2.29 2.737a428.305 428.305 0 0 0-1.99 2.353c-1.42 1.72-2.433 2.917-3.272 3.862a77.054 77.054 0 0 0-1.964 2.323c-.54.669-1.13 1.38-1.31 1.583a215.79 215.79 0 0 0-1.964 2.312c-1.826 2.172-2.788 3.27-3.798 4.33-.376.396-.586.875-.47 1.065.256.413 1.813.47 1.813.066 0-.153 1.915-.543 4.256-.864 2.34-.32 4.255-.71 4.255-.865 0-.154.33-.28.737-.278 1.087.006 8.238-1.37 8.428-1.62.09-.117 1.085-.49 2.21-.822 1.125-.335 2.046-.708 2.046-.83 0-.12 1.03-.564 2.29-.985 1.26-.42 2.29-.878 2.29-1.015 0-.138.333-.348.738-.467 1.07-.314 6.745-3.088 6.93-3.386.086-.14.753-.45 1.482-.69.73-.242 1.326-.545 1.326-.675s.773-.633 1.718-1.117c2.78-1.42 3.94-2.09 4.145-2.394.106-.157.855-.643 1.666-1.08.81-.437 1.58-.96 1.71-1.161.13-.201.683-.55 1.228-.776.544-.225.99-.544.99-.708 0-.162.257-.392.572-.508.59-.217 2.89-1.83 4.338-3.04a109.66 109.66 0 0 1 2.536-2.006c.946-.728 1.72-1.458 1.72-1.623-.001-.165.156-.3.349-.3.716 0 10.04-8.86 12.79-12.154a98.052 98.052 0 0 1 2.128-2.457 49.968 49.968 0 0 0 1.752-2.058c.45-.567 1.15-1.373 1.555-1.792.405-.421.736-.921.736-1.116 0-.195.258-.547.573-.783.708-.53 2.046-2.405 2.046-2.867 0-.187.144-.34.32-.34.174 0 .55-.45.835-1 .284-.55.78-1.264 1.105-1.587.323-.323.793-1.052 1.044-1.62.25-.566.564-1.031.696-1.031.13 0 .483-.478.783-1.063.3-.585.646-1.138.77-1.228.122-.09.58-.826 1.017-1.635.437-.81.91-1.62 1.05-1.8.61-.786 2.787-4.65 2.996-5.32.126-.407.338-.738.47-.738.132 0 .505-.737.83-1.637.323-.9.702-1.637.842-1.637s.585-.884.99-1.964c.403-1.08.863-1.964 1.02-1.964.159 0 .288-.154.288-.342 0-.19.517-1.445 1.148-2.793.63-1.348 1.33-3.035 1.553-3.75.223-.713.503-1.297.622-1.297s.479-.847.799-1.882c.32-1.035.67-1.956.778-2.046.108-.09.554-1.27.99-2.62.439-1.35.886-2.527.995-2.617.11-.09.46-1.122.783-2.292.32-1.17.706-2.278.855-2.462.148-.185.6-1.658 1-3.275.402-1.616.823-3.012.937-3.102.425-.337 3.251-12.252 3.273-13.802.008-.48.144-.922.304-.982.265-.1.663-2.444 2.244-13.203.77-5.237.773-34.005.004-39.28-1.177-8.081-1.91-12.473-2.187-13.093-.16-.36-.616-2.348-1.01-4.42-.394-2.07-.82-3.837-.947-3.927-.127-.09-.495-1.415-.817-2.946-.323-1.53-.704-2.93-.848-3.11-.144-.18-.595-1.58-1.003-3.11-.407-1.53-.84-2.855-.963-2.945-.123-.09-.492-1.164-.82-2.386-.326-1.224-.706-2.294-.843-2.378-.137-.085-.568-1.184-.958-2.442-.39-1.26-.81-2.29-.936-2.29-.126.003-.427-.668-.669-1.49-.242-.82-.643-1.691-.89-1.94-.247-.246-.45-.615-.45-.82 0-.491-1.373-3.72-1.67-3.931-.13-.091-.495-.828-.814-1.638-.319-.81-.677-1.545-.794-1.635-.118-.09-.837-1.45-1.598-3.024-.76-1.572-1.558-3.045-1.772-3.27-.214-.228-.746-1.15-1.18-2.05-.437-.9-.88-1.71-.986-1.8-.107-.091-.483-.718-.838-1.391-.354-.677-.748-1.23-.875-1.23s-.323-.29-.435-.645c-.113-.356-.712-1.383-1.332-2.284-.619-.9-1.126-1.78-1.126-1.956 0-.176-.206-.437-.457-.58-.252-.145-.782-.815-1.178-1.49-.397-.675-.837-1.228-.978-1.228-.139-.001-.342-.258-.449-.573-.286-.853-.956-1.816-1.602-2.304-.315-.238-.573-.644-.573-.903 0-.258-.294-.653-.654-.878-.36-.225-.655-.53-.655-.677 0-.272-2.999-3.967-6.71-8.268-3.293-3.816-15.935-16.184-16.543-16.184-.17 0-.495-.303-.72-.673-.228-.37-.906-.98-1.508-1.355-.604-.375-1.43-.993-1.837-1.373a20.819 20.819 0 0 0-1.524-1.271c-1.442-1.063-3.724-2.824-4.232-3.264-.276-.24-1.086-.79-1.799-1.223-.714-.434-1.416-.98-1.56-1.216-.144-.235-.447-.427-.675-.427-.227 0-.727-.292-1.11-.65-.385-.358-1.296-.962-2.026-1.343-.73-.38-1.328-.81-1.328-.954 0-.144-.414-.406-.92-.583-.506-.177-1.14-.543-1.412-.813-.27-.27-1.145-.823-1.944-1.228-.799-.406-1.526-.83-1.616-.942-.09-.112-.753-.498-1.473-.856-.72-.357-1.383-.734-1.473-.837-.09-.102-.9-.534-1.8-.96-.9-.424-1.71-.864-1.8-.977-.259-.327-6.4-3.277-6.819-3.277-.208 0-.378-.134-.378-.297 0-.163-.81-.55-1.8-.862-.989-.312-1.8-.667-1.8-.79 0-.122-1.032-.56-2.29-.974-1.262-.413-2.293-.865-2.293-1.005 0-.14-.958-.513-2.128-.83-1.17-.317-2.128-.683-2.128-.815 0-.275-3.323-1.14-5.717-1.487-.895-.13-1.826-.436-2.07-.68-.71-.711-2.033-.567-2.033.219" fill="#5b5b5b"/><path d="M192.799 23.918c-6.08.263-13.848.977-14.076 1.294-.09.125-1.634.41-3.431.634-1.798.224-3.786.604-4.42.845-1.005.382-4.555 1.21-7.288 1.7-.495.09-.9.268-.9.4s-.784.419-1.743.63c-1.814.409-4.137 1.49-4.553 2.13-1.357 2.077 3.262 9.354 7.033 11.08.495.227.9.499.9.607 0 .106.847.475 1.882.818 1.035.344 1.956.7 2.046.79.09.09.384.22.654.287 2.127.53 3.167.712 5.892 1.032 1.711.2 3.405.492 3.765.647.36.154 1.906.5 3.437.77 2.648.466 7.118 2.166 7.556 2.874.6.974 4.615.958 6.448-.026.567-.304 5.777-1.69 6.536-1.738.225-.014.409-.123.409-.242 0-.122 1.4-.494 3.11-.832 1.71-.335 3.109-.71 3.109-.835 0-.124 1.186-.4 2.634-.61 1.449-.212 3.695-.658 4.992-.99 1.297-.333 4.126-.847 6.286-1.142 2.16-.295 4.296-.673 4.746-.84.45-.163 3.544-.602 6.874-.973 3.33-.371 6.424-.831 6.874-1.022.45-.191 3.985-.461 7.856-.6 8.107-.291 10.02-.747 9.66-2.305-.25-1.084-2.091-2.637-4.016-3.39-.854-.334-1.994-.795-2.534-1.025a29.31 29.31 0 0 0-2.292-.826c-.72-.225-1.456-.523-1.636-.662-.18-.14-1.432-.571-2.782-.961s-2.897-.95-3.437-1.244c-.54-.295-.982-.483-.982-.417 0 .185-3.56-.695-3.928-.971-.18-.135-1.874-.567-3.765-.96-1.89-.395-3.812-.86-4.271-1.035-.459-.175-2.52-.59-4.583-.924-2.06-.333-4.116-.702-4.566-.82-3.295-.855-19.04-1.512-27.496-1.145m-50.246 12.75c-2.217.427-2.89.622-3.085.895-.104.144-.85.543-1.661.887-.81.344-1.694.796-1.964 1.006-.27.209-1.19.66-2.045 1.002-.854.342-1.554.726-1.555.852 0 .127-.627.532-1.392.9-.765.368-2.054 1.107-2.864 1.64-.81.536-2.21 1.366-3.11 1.845-.9.48-1.71.986-1.8 1.126-.163.25-3.274 2.503-5.658 4.093-.68.455-1.526 1.08-1.878 1.388-.352.309-1.046.884-1.544 1.278-1.95 1.546-4.57 3.786-5.873 5.025-.752.715-1.464 1.3-1.582 1.3-.18 0-6.305 6.219-9.132 9.272-1.476 1.595-5.56 6.463-6.324 7.539-1.038 1.462-1.801 2.446-2.46 3.177-.316.348-.494.634-.397.634.097 0-.124.322-.49.716-.368.394-.67.826-.67.96 0 .132-.2.443-.447.69-.247.247-.693.92-.99 1.497-.3.576-.695 1.048-.881 1.048-.186-.001-.247.146-.136.326.112.18.073.327-.086.327-.159 0-.618.626-1.02 1.392a43.165 43.165 0 0 1-1.696 2.864 30.7 30.7 0 0 0-1.632 2.864c-.369.765-.81 1.39-.982 1.39-.172 0-.278.11-.236.247.041.135-.548 1.368-1.31 2.74-.761 1.373-1.385 2.64-1.385 2.814 0 .176-.294.66-.654 1.074-.36.415-.655.945-.655 1.178 0 .232-.498 1.425-1.107 2.65-.61 1.225-1.208 2.559-1.331 2.964-.124.405-.362.737-.53.737-.168 0-.305.563-.305 1.252 0 2.225 2.913 4.05 4.832 3.027.313-.166 1.673-.551 3.024-.854 1.35-.304 2.602-.663 2.782-.8.18-.136 1.358-.583 2.619-.994 1.26-.41 2.365-.855 2.455-.99.09-.132.75-.485 1.468-.784 1.482-.617 2.787-1.726 2.787-2.37 0-.24.12-.433.267-.433.146 0 .527-.547.846-1.215.319-.67 1.01-1.758 1.534-2.421.525-.662.96-1.33.97-1.484.021-.378 3.482-3.201 4.087-3.333.263-.058.479-.224.479-.37s.774-.58 1.72-.968c.944-.39 2.012-.873 2.372-1.078.366-.207 3.18-.476 6.383-.61 5.367-.223 7.139-.446 7.53-.946.09-.114.699-.514 1.349-.89.649-.375 1.53-.98 1.963-1.343 4.186-3.53 5.2-4.328 5.49-4.328.185 0 .465-.23.624-.515.158-.283.582-.688.94-.9 1.279-.754 3.885-2.496 4.354-2.91.263-.234 1.44-1.045 2.62-1.805 1.177-.76 2.362-1.588 2.632-1.84.27-.253.796-.553 1.17-.668.373-.115.976-.486 1.34-.825.363-.34 1.155-.872 1.76-1.185.603-.312 1.277-.733 1.496-.935.218-.201 1.156-.808 2.083-1.348a141.113 141.113 0 0 0 6.16-3.823c.774-.508 1.547-.924 1.718-.924.17 0 .572-.257.89-.572.319-.315 1.277-.928 2.128-1.361.852-.434 1.548-.912 1.548-1.064 0-.152.194-.276.43-.276.547 0 3.044-2.684 3.328-3.578.118-.372.337-.677.487-.677 1.457 0 1.21-7.96-.333-10.696-1.098-1.951-11.867-13.193-12.64-13.198a.567.567 0 0 1-.5-.36c-.134-.396-3.31-1.302-4.345-1.238-.366.022-1.255.154-1.975.293M243.7 47.763c-2.521.3-4.804.644-5.074.762-.27.118-2.995.53-6.055.917-6.73.848-6.185.764-6.383.99-.09.103-2.066.448-4.391.767-2.324.313-4.46.7-4.746.85-.286.15-2.361.6-4.611.994-2.252.396-4.167.816-4.257.932-.09.117-1.268.49-2.618.83-1.35.34-2.676.734-2.946.874s-1.48.567-2.691.95c-3.574 1.13-5.325 3.43-6.48 8.504-.224.99-.51 1.948-.634 2.128-.612.883-.716 10.107-.128 11.326.21.432.627 1.447.93 2.257.303.81.649 1.546.767 1.637.119.09.498.72.843 1.397.345.678 1.192 1.856 1.883 2.62.69.76 1.58 2.05 1.975 2.857.395.81.9 1.66 1.125 1.885.223.227.592.927.819 1.555.227.628.53 1.142.674 1.142.144 0 .262.164.262.364 0 .2.683 1.784 1.517 3.52.835 1.734 1.522 3.332 1.528 3.55.005.216.206.47.447.562.24.09.436.332.436.535 0 1.242 3.688 4.284 5.728 4.723 1.788.385 6.536 2.205 7.202 2.76.36.3 1.078.757 1.595 1.017 2.145 1.076 4.85 5.127 5.637 8.441.286 1.203.602 2.41.703 2.68.102.27.203.637.226.817.128.996 1.22 2.764 2.187 3.541.61.49 1.297 1.044 1.527 1.234.23.19 1.189.66 2.128 1.043.94.384 1.782.78 1.872.878.09.099.68.44 1.31.758 1.803.91 4.729 2.614 4.91 2.858.09.122.789.495 1.554.83.765.333 1.392.71 1.392.841 0 .13.688.568 1.529.975.841.408 1.8 1.01 2.128 1.34.329.33.81.597 1.073.597.261 0 .592.202.736.448.144.247.909.776 1.699 1.176.79.4 1.6.863 1.8 1.027 1.013.834 4.798 3.242 5.095 3.242.188 0 .342.122.342.272 0 .15.405.48.9.732s1.3.743 1.79 1.09c4.378 3.107 14.721-1.064 15.982-6.446.219-.937.508-1.85.64-2.03.134-.18.492-1.654.797-3.274.305-1.62.64-3.167.747-3.437.337-.86.437-1.376 1.203-6.22.413-2.61.84-4.967.95-5.237.595-1.473 2.02-25.86 1.51-25.86-.108 0-.285-2.467-.392-5.482-.218-6.102-.767-12.013-1.21-13.012-.159-.36-.523-2.456-.81-4.657-.552-4.26-.728-5-1.193-5-.166 0-.298-.195-.298-.436 0-.402-1.252-1.703-2.21-2.294-.22-.138-1.298-.395-2.392-.57-1.093-.177-2.236-.448-2.54-.604-.302-.156-1.213-.546-2.023-.867-.81-.32-1.62-.747-1.8-.947-.181-.2-.873-.697-1.54-1.104-1.7-1.037-4.844-5.472-4.844-6.83 0-.232-.147-.422-.327-.422-.18 0-.327-.194-.327-.43 0-.637-2.281-2.57-3.6-3.05-1.581-.578-7.947-.494-13.584.18m45.008 9.84c0 .184-.258.34-.573.345-2.284.043-3.505 5.764-1.708 8.01.144.18.574 2.683.956 5.563s.758 5.68.835 6.22c.077.54.315 2.235.529 3.766.556 3.975.546 28.675-.013 32.57-.234 1.62-.461 3.24-.507 3.6-.046.36-.17 1.17-.277 1.8-.106.63-.437 2.987-.735 5.238-.298 2.25-.658 4.24-.8 4.42-.142.18-.35.99-.462 1.8-.112.81-.432 2.43-.712 3.6-.28 1.17-.535 2.445-.568 2.832-.033.388-.17.637-.305.554-.135-.083-.248.04-.252.277-.003.235-.225 1.67-.494 3.19-.76 4.295.533 8.706 3.004 10.254.22.137.63.69.911 1.227l1.002 1.907c.822 1.563 1.09 4.82.712 8.65-.343 3.464-.036 6.278.738 6.78.145.094.357.467.47.83.112.36 1.2 1.702 2.416 2.98 5.125 5.383 6.236 6.632 6.057 6.811-.105.104.056.19.356.19s.544-.08.544-.179c.002-.775 1.922-9.285 2.822-12.51 3.892-13.91 9.108-24.73 18.028-37.394 1.454-2.066 5.811-7.283 8.064-9.656 2.86-3.013 2.93-3.29 1.664-6.614a272.053 272.053 0 0 1-1.55-4.188c-.388-1.08-.789-2.038-.892-2.128-.104-.09-.538-1.036-.966-2.103-.932-2.326-5.813-12.04-6.174-12.29-.14-.095-.583-.86-.985-1.702-.4-.84-.943-1.705-1.204-1.922-.26-.22-.475-.533-.475-.7 0-.348-3.552-5.74-4.953-7.52-.516-.656-.94-1.32-.94-1.476 0-.156-.294-.467-.654-.692-.36-.225-.654-.627-.654-.894 0-.265-.295-.668-.655-.893-.36-.224-.655-.54-.655-.7 0-.16-.478-.83-1.064-1.49a64.334 64.334 0 0 1-1.952-2.33c-2.685-3.413-13.925-14.817-15.306-15.53-1.34-.694-2.626-.94-2.626-.502M161.711 73.032c-.442.178-.884.435-.978.57-.096.137-1.352.889-2.792 1.67-1.44.784-3.075 1.769-3.632 2.192-.557.423-1.165.768-1.35.768-.187 0-.514.212-.729.47-.214.258-.977.776-1.695 1.15-.718.374-1.619.973-2.003 1.331-.384.357-.844.65-1.023.65-.18 0-1.383.81-2.675 1.8-1.293.99-2.492 1.801-2.665 1.801-.172 0-.632.331-1.022.736-.779.81-1.608 1.492-4.32 3.56-.99.755-2.04 1.607-2.335 1.894-.294.286-1.399 1.283-2.454 2.215-5.49 4.85-7.005 6.883-6 8.057.186.217.543.69.792 1.05.411.593 1.014.683 6.372.958 3.255.167 5.918.424 5.918.573 0 .148.7.27 1.555.268 2.626 0 13.954 1.002 14.648 1.298.36.153 3.748.607 7.53 1.008 3.78.402 6.946.833 7.036.958.09.126 2.08.49 4.42.812 2.34.32 4.477.7 4.749.843.272.142 2.26.57 4.42.948 2.157.38 4.218.827 4.578.993.36.167 1.76.537 3.11.82 1.35.286 2.793.692 3.207.903 1.683.858 4.764-.621 5.16-2.478.12-.567.323-1.177.45-1.357.358-.515.434-2.783.092-2.783-.17 0-.563-.665-.873-1.479-.311-.813-.736-1.667-.945-1.897-.376-.414-.8-1.142-2.515-4.316-2.097-3.883-2.69-4.92-2.909-5.074-.126-.09-.432-.68-.678-1.309-.246-.63-.7-1.514-1.008-1.964-.308-.45-1.476-2.632-2.595-4.848-3.268-6.469-5.96-8.245-12.499-8.245-.71 0-1.984-.206-2.828-.458-.844-.252-2.124-.615-2.844-.807-.81-.216-1.98-.978-3.065-1.997-1.867-1.754-3.49-2.126-5.6-1.284m-29.47 40.227c0 .18-.288.325-.64.325-2.599 0-6.67 3.05-8.193 6.138-.422.855-.964 1.672-1.204 1.816-.24.144-.436.43-.436.637 0 .581-4.589 4.82-5.453 5.036-.422.106-.767.309-.767.451 0 .895-7.357 1.392-9.818.663-2.496-.739-6.9-.283-8.185.848-1.247 1.097-3.6 3.573-3.6 3.788 0 .132-.312.577-.693.988-1.026 1.11-4.545 5.909-4.545 6.199 0 .138-.37.594-.822 1.013l-.82.762 2.122 4.3c11.896 24.08 15.59 48.575 12.424 82.381-.569 6.134-.43 7.793 1.018 12.06 1.165 3.435 1.22 3.33-1.56 3.094-6.303-.534-10.997-3.824-13.94-9.772-1.243-2.51-2.25-5.763-6.318-20.402-2.987-10.749-5.632-16.499-10.827-23.535-.424-.575-4.752-.394-5.37.225-.412.41-.225 4.744.221 5.143.1.09.456 1.416.79 2.946.336 1.531.751 2.967.923 3.192.171.225.202.41.068.41s-.096.183.084.408c.18.225.581 1.44.891 2.701.31 1.26.682 2.438.827 2.618.145.18.516 1.21.825 2.292.31 1.08.746 2.332.972 2.782.83 1.655 1.475 3.308 1.475 3.775.001.264.148.48.328.48.18 0 .327.224.327.498 0 .725 3.828 8.747 5.933 12.432.514.9 1.248 2.217 1.63 2.925.383.71.9 1.493 1.15 1.742.25.25.453.585.453.747 0 .39 2.992 5.03 3.333 5.17.147.06.267.25.267.423.001.344 2.581 3.904 3.11 4.29.18.133.22.243.083.246-.135.003.012.29.327.637.315.348 1.087 1.23 1.716 1.964.628.733 1.333 1.332 1.565 1.332.232 0 .5.2.592.444.094.251 1.01.728 2.036 1.068 1.026.341 1.946.727 2.044.86.194.26 9.817 1.562 11.552 1.562.588 0 1.215.147 1.395.327.887.887 30.513.917 32.86.033.453-.17 2.15-.4 3.77-.513 3.686-.256 9.703-1.122 10.143-1.462.182-.14 1.288-.43 2.458-.645a54.968 54.968 0 0 0 4.255-.997c2.556-.728 6.225-1.656 6.793-1.718.225-.024.41-.14.41-.257 0-.117 1.14-.48 2.536-.807 1.395-.328 2.61-.697 2.7-.82.09-.125 1.121-.49 2.291-.81 1.173-.32 2.72-.849 3.44-1.173a21.609 21.609 0 0 1 2.7-.96c.764-.204 1.39-.495 1.39-.645 0-.15.444-.363.987-.471.543-.109 1.76-.564 2.706-1.01.945-.448 2.372-1.045 3.173-1.327.8-.282 1.534-.628 1.63-.77.099-.14 1.025-.595 2.06-1.01 1.036-.414 1.883-.884 1.883-1.043 0-.159.184-.29.41-.29 1.045 0 3.519-3.46 3.519-4.925 0-.35.16-.639.358-.639.236 0 .3-.585.185-1.72-.353-3.49-.375-4.172-.135-4.172.135 0 .215-.111.18-.246-1.072-3.935 4.44-10.764 9.967-12.353 1.035-.297 1.884-.64 1.886-.763.002-.122.557-.487 1.233-.81.912-.437 1.482-1.071 2.206-2.454l.976-1.864.034-12.768c.02-7.023-.072-14.02-.202-15.55-.586-6.87-1.666-15.927-1.962-16.445-.18-.312-.325-.9-.325-1.303 0-1.161-1.4-9.24-1.633-9.42-.115-.093-.482-1.677-.816-3.522-.334-1.846-.73-3.356-.88-3.356-.15 0-.272-.138-.272-.306-.002-.168-.174-.721-.384-1.228-.21-.506-.394-1.023-.409-1.147-.065-.531-2.742-2.588-3.792-2.913-.63-.195-1.77-.637-2.533-.98-.763-.346-1.589-.627-1.835-.627s-1.122-.516-1.947-1.146c-.826-.63-1.657-1.146-1.848-1.146-.19-.003-.346-.115-.346-.252 0-.136-.339-.615-.753-1.063-.414-.45-1.04-1.328-1.39-1.955-.35-.627-.795-1.31-.987-1.517-.19-.207-.537-1.24-.77-2.297-.918-4.185-2.788-7.746-4.207-8.01-.132-.024-.534-.156-.894-.292-.36-.136-1.318-.355-2.128-.488s-1.62-.356-1.8-.496c-.18-.14-2.243-.596-4.583-1.015-2.34-.418-4.33-.84-4.42-.936-.089-.097-.53-.23-.98-.293-.45-.064-2.513-.408-4.584-.763-2.07-.356-4.279-.682-4.91-.727-.63-.044-1.366-.174-1.636-.29-.657-.282-10.755-1.213-13.155-1.213-1.046 0-1.903-.132-1.903-.293 0-.165-3.937-.307-9-.325-5.767-.021-9.003.085-9.003.293M88.057 118.2c-.63.174-1.44.458-1.8.63-.676.326-4.798 1.315-5.81 1.396-.315.025-.573.145-.573.266 0 .12-.552.32-1.227.443-2.92.53-5.646 1.23-5.646 1.452 0 .13 1.22 1.703 2.713 3.492 1.49 1.79 3.657 4.579 4.812 6.2 2.593 3.637 2.597 3.639 3.352 2.229.34-.635.754-1.322.921-1.53.8-.99 3.26-4.834 3.26-5.096a.47.47 0 0 1 .27-.406c.37-.15 3.33-4.738 3.33-5.166 0-.19.145-.344.325-.344.43 0 .423-1.554-.01-2.06a17.263 17.263 0 0 1-.738-.95c-.524-.73-1.763-.947-3.18-.557m135.156 15.62c-1.059.45-2.645 2.23-3.404 3.822-.802 1.682-.894 5.728-.136 6.002.167.06.237.218.155.35-.08.131.057.834.308 1.561.25.728.626 2.3.834 3.497.208 1.196.49 2.174.627 2.174.136 0 .34.7.45 1.555.212 1.62 1.137 7.827 1.38 9.247.272 1.597 1.437 14.87 1.491 16.993.03 1.186.22 2.26.418 2.39.481.308.517 25.705.037 26.047-.388.277-.569 3.43-.183 3.19.145-.09.36.423.472 1.14.408 2.547 3.727 3.734 5.78 2.066 1.994-1.62 12.51-12.537 13.134-13.635.121-.212.968-1.184 1.883-2.16.914-.978 1.663-1.877 1.663-1.998 0-.122.405-.673.9-1.226 1.09-1.216 1.353-1.55 2.388-3.008a27.483 27.483 0 0 1 1.54-1.96c.405-.456.736-.964.736-1.131 0-.167.225-.537.5-.822.624-.648 1.94-2.656 2.652-4.046.297-.58.641-1.13.765-1.22.123-.09.581-.825 1.018-1.635.437-.81.966-1.656 1.177-1.88.21-.223.562-.96.783-1.636.22-.677.563-1.336.762-1.464.455-.294.481-5.76.03-6.083-1.84-1.31-3.256-5.492-3.127-9.232.058-1.71.124-4.228.145-5.594l.042-2.485-1.473-1.348c-2.296-2.103-2.618-2.37-2.618-2.17 0 .1-.405-.1-.9-.45s-1.232-.736-1.637-.862c-.405-.125-.736-.36-.736-.518 0-.16-.627-.588-1.39-.952-1.41-.67-1.61-.788-4.064-2.395-.754-.495-1.75-1.043-2.215-1.22-.463-.176-.843-.496-.843-.71 0-.215-.08-.31-.178-.212-.153.153-4.936-2.504-5.877-3.265-.178-.146-.988-.605-1.798-1.02-2.774-1.422-4.337-2.303-4.87-2.745-1.333-1.107-5.012-1.638-6.62-.955m54.697 41.71c-.63.204-1.219.468-1.309.587-.09.12-1.195.302-2.455.407-2.48.207-4.093.785-5.44 1.95-.93.802-3.562 4.548-3.562 5.067 0 .173-.28.57-.625.882-.344.31-.715.923-.825 1.36-.11.435-.352.792-.54.792-.187 0-.25.148-.138.328.112.18.064.327-.107.327-.17 0-.555.48-.856 1.064-.59 1.146-1.42 2.342-3.066 4.423-.574.725-1.044 1.445-1.044 1.6 0 .157-.295.468-.655.693-.36.225-.657.567-.657.76 0 .193-.552 1.035-1.227 1.87-.674.835-1.447 1.797-1.718 2.138-.27.34-.686.823-.924 1.073s-.36.453-.27.453c.162 0-.413.655-2.92 3.327-.733.78-1.35 1.54-1.37 1.686-.02.146-2.934 3.166-6.474 6.71-8.427 8.436-8.5 8.544-8.43 12.335.058 3.053-.41 7.377-.83 7.682-.13.096-.519.812-.864 1.592-.585 1.326-4.472 5.62-5.087 5.62-.153 0-.473.183-.71.41-.239.224-1.013.703-1.72 1.063-.71.36-1.54.874-1.845 1.145-.306.27-.83.71-1.167.98-1.187.953-2.213 3.098-2.547 5.325-.128.852-.334 1.55-.458 1.55-.124.001-.506 1.216-.848 2.7-.34 1.486-.755 2.965-.919 3.288-.163.324-.6 1.797-.973 3.274-.372 1.477-.792 2.76-.933 2.85-.14.088-.504 1.12-.806 2.29-.303 1.17-.817 2.715-1.142 3.435a25.46 25.46 0 0 0-1.005 2.7c-.227.766-.512 1.392-.633 1.392-.122 0-.237.184-.255.41-.052.623-1.344 4.217-1.665 4.63-.155.2-.555 1.097-.888 1.997-.332.901-.852 2.08-1.155 2.62-.303.54-.736 1.57-.962 2.29-.226.72-.51 1.382-.633 1.472-.119.09-1.307 2.374-2.636 5.074-1.33 2.701-2.496 4.984-2.595 5.074-1.573 1.44-.259 5.184 1.852 5.278 3.775.168 14.438-.514 15.645-1 .36-.146 3.085-.593 6.056-.995 2.97-.4 5.548-.846 5.728-.988.18-.142 1.653-.517 3.274-.833 1.62-.316 3.02-.67 3.11-.786.09-.117 1.34-.48 2.782-.808 1.44-.327 3.06-.79 3.6-1.027.54-.237 1.865-.696 2.945-1.02 1.08-.322 2.038-.677 2.128-.79.09-.109 1.268-.534 2.62-.939 1.35-.405 2.602-.859 2.79-1.01.181-.15 1.065-.523 1.961-.826.896-.304 1.702-.646 1.792-.762.09-.115 1.048-.565 2.128-1 1.08-.435 2.037-.879 2.127-.988.09-.109.827-.484 1.637-.834s1.547-.727 1.637-.838c.09-.11.974-.597 1.964-1.083 2.62-1.284 3.625-1.827 4.91-2.654.63-.405 2.528-1.604 4.217-2.663 1.69-1.06 3.32-2.15 3.622-2.419.302-.27 1.04-.77 1.637-1.11.598-.34 1.325-.825 1.615-1.078a63.44 63.44 0 0 1 2-1.595c.81-.623 1.648-1.276 1.86-1.45l2.23-1.82c1.014-.825 2.112-1.748 2.44-2.052.33-.304 1.273-1.142 2.098-1.862.825-.719 3.162-2.989 5.192-5.04 5.018-5.073 5.396-5.475 7.264-7.725.897-1.08 1.712-2.038 1.812-2.128.1-.09.683-.826 1.296-1.636.613-.81 1.387-1.768 1.72-2.128.332-.36 1.597-2.007 2.812-3.66 2.825-3.84 2.782-3.78 4.495-6.487.797-1.26 1.6-2.466 1.783-2.678 2.785-3.23 3.36-7.77 1.482-11.727-2.223-4.684-1.847-5.152-5.126 6.385-1.94 6.82-5.977 11.5-11.584 13.43-2.026.696-6.684 1.26-6.684.805 0-.145.516-1.858 1.146-3.807 1.334-4.126 1.418-5.87.642-13.376-1.064-10.305-1.208-26.898-.298-34.377.233-1.917-.14-2.619-2.973-5.584-.444-.465-.808-.953-.808-1.085s-.442-.61-.982-1.066c-.54-.454-.982-.982-.982-1.173 0-.19-.736-1.053-1.637-1.916-.9-.864-1.636-1.67-1.636-1.79 0-.348-1.97-2.013-3.757-3.176-1.822-1.185-5.395-1.564-7.7-.817M328.463 193c-3.68 5.642-4.886 8.026-6.5 12.85l-1.472 4.393.637.894c.35.492.638 1.046.638 1.23.001.185.192.531.427.77.234.237.755 1.115 1.158 1.951 1.515 3.15 4.668 2.506 5.65-1.152.198-.742.454-1.496.568-1.676.114-.18.222-.4.24-.49.017-.09.205-.58.416-1.09.211-.51.55-1.616.756-2.456.205-.84.485-1.676.62-1.856.315-.414 2.462-7.917 2.951-10.31.203-.99.576-2.432.83-3.204.738-2.248.635-2.63-.768-2.855a47.685 47.685 0 0 1-2.465-.474l-1.239-.28-2.448 3.755m-121.832 47.52c-.585.056-1.063.223-1.063.37s-.406.346-.903.445c-.496.1-1.776.707-2.845 1.35-1.068.644-2.124 1.17-2.347 1.17-.223 0-.6.19-.838.424-.238.232-.948.622-1.578.865-1.01.39-3.234 1.373-6.383 2.82-2.062.948-8.682 3.42-9.158 3.42-.274 0-.498.132-.498.292 0 .16-1.033.545-2.295.855-1.26.31-2.37.686-2.465.84-.094.15-.387.193-.652.092-.264-.102-.48-.045-.48.125 0 .17-.847.496-1.882.723-1.035.227-2.323.603-2.864.836-.978.42-4.386 1.247-6.874 1.666-.72.122-1.456.334-1.636.472-.26.2-4.772 1.057-7.365 1.4-.27.035-.565.158-.655.272-.143.18-9.58 1.359-14.73 1.839-2.392.223-24.192.239-29.787.022-2.429-.095-4.603-.104-4.828-.021-.485.177-.559 1.716-.083 1.716.18 0 .326.28.326.62 0 .343.332.924.737 1.293.405.369 1.326 1.215 2.046 1.88.72.664 2.34 2.077 3.6 3.14 1.26 1.06 2.66 2.293 3.112 2.737.453.444.93.807 1.064.807.242 0 .7.36 2.348 1.838.478.43.943.78 1.033.78.09 0 .943.59 1.897 1.31.954.72 1.856 1.31 2.004 1.31.15 0 .504.226.79.503.86.835 7.312 4.734 7.833 4.734.19 0 .462.189.606.42.281.453 9.546 5.144 10.16 5.144.201 0 .56.185.8.41.236.226 1.241.692 2.231 1.037.99.345 1.874.723 1.964.84.09.118 1.27.56 2.62.987 1.35.425 2.527.87 2.617.988.091.12 1.195.49 2.455.82 1.261.334 2.365.689 2.455.79.194.218.36.266 3.765 1.083 1.44.344 2.924.773 3.298.952.374.18 2.068.615 3.765.97 1.696.354 4.113.862 5.372 1.128 1.254.266 3.831.708 5.724.983 1.892.274 4.177.624 5.077.778 1.79.304 4.42.094 4.42-.355 0-.156.202-.283.45-.283.902 0 3.785-3.754 4.781-6.22.253-.63.555-1.22.67-1.31.114-.09.554-1.01.981-2.045.422-1.035.875-1.882 1.004-1.882.13 0 .5-.736.822-1.637.324-.9.687-1.636.808-1.636.12 0 .553-.921.961-2.046.408-1.125.84-2.12.96-2.21.308-.232 1.66-3.598 1.66-4.135 0-.246.132-.447.296-.447.164 0 .561-.847.881-1.882.32-1.036.682-1.956.804-2.046.123-.09.564-1.195.982-2.455.417-1.26.93-2.586 1.137-2.946.208-.356.576-1.314.817-2.124.24-.81.543-1.62.67-1.8.131-.18.553-1.506.942-2.946.388-1.44.841-2.912 1.006-3.273.164-.36.534-1.612.82-2.782.29-1.17.804-2.938 1.146-3.928 1.608-4.66 1.5-6.79-.42-8.328l-1.392-1.11c-.5-.396-1.505-.562-2.696-.444" fill="#24ace4"/><path d="M282.938 97.054c0 1.98.054 2.748.12 1.707.064-1.042.064-2.663-.002-3.6-.066-.94-.119-.087-.118 1.893m15.023 106.219c0 .81.064 1.142.142.737a4.665 4.665 0 0 0 0-1.473c-.078-.405-.142-.074-.142.736m0 8.184c0 .81.064 1.14.142.736a4.665 4.665 0 0 0 0-1.473c-.078-.405-.142-.074-.142.737m0 2.946c0 .81.064 1.14.142.736a4.665 4.665 0 0 0 0-1.473c-.078-.405-.142-.074-.142.737m-195.757 1.636c0 .63.067.888.15.573a2.7 2.7 0 0 0 0-1.146c-.083-.315-.15-.057-.15.573" fill="#407f9c"/><path d="M298.282 193.617c.004.72.071.976.15.57.077-.408.075-.997-.007-1.31-.082-.313-.146.02-.143.74m-196.065 3.11c0 .81.064 1.14.142.736a4.665 4.665 0 0 0 0-1.473c-.078-.405-.142-.073-.142.737m195.753.982c0 .99.062 1.395.137.9a7.228 7.228 0 0 0 0-1.8c-.075-.496-.137-.091-.137.9m-195.384 9.656c0 2.7.05 3.762.113 2.358a65.328 65.328 0 0 0-.001-4.91c-.062-1.297-.113-.15-.112 2.552m195.07 0c.002 1.44.06 1.99.13 1.219.068-.77.067-1.948-.003-2.62-.07-.67-.127-.04-.126 1.4m.313 9.985c0 .99.062 1.394.137.9a7.236 7.236 0 0 0 0-1.802c-.075-.495-.137-.09-.137.9m-195.75 1.146c.004.9.067 1.23.143.732.075-.497.073-1.234-.005-1.636-.078-.403-.14.004-.137.904m196.06 3.6c.005.721.072.977.15.57.078-.407.076-.996-.006-1.31-.082-.312-.146.02-.143.74m-196.399 1.638c.004.72.07.976.15.569.077-.408.074-.997-.008-1.31-.082-.312-.146.02-.142.742m-.334 3.437c0 .63.067.887.15.572.076-.315.076-.83-.006-1.145-.083-.315-.15-.058-.15.573m-.314 3.6c0 .81.064 1.142.142.737a4.665 4.665 0 0 0 0-1.473c-.078-.405-.142-.074-.142.736m-.662 12.992c.315.082.83.082 1.145 0 .316-.083.058-.15-.572-.15s-.887.067-.572.15m6.383 17.026a4.665 4.665 0 0 0 1.473 0c.405-.078.073-.14-.737-.14-.811 0-1.141.062-.737.14" fill="#3491ba"/><path d="M101.883 195.254c.004.72.07.976.15.57.077-.408.074-.998-.008-1.311-.082-.313-.146.02-.142.74m196.415 2.128c0 .997.06 1.4.136.907a7.236 7.236 0 0 0 0-1.801c-.075-.495-.136-.09-.136.9m-196.077 3.765c.003.9.066 1.23.142.733.075-.498.073-1.234-.005-1.637-.078-.402-.14.005-.137.906m195.768 6.22c-.007 1.619.05 2.323.12 1.564.065-.76.07-2.086 0-2.946-.069-.861-.125-.24-.126 1.38m-195.769 6.22c.003.9.066 1.23.142.732.076-.497.074-1.234-.004-1.636-.078-.403-.14.004-.137.904m196.077 4.092c0 .99.06 1.395.136.9a7.228 7.228 0 0 0 0-1.8c-.076-.494-.137-.09-.137.9m-196.409 2.29c0 .81.063 1.144.14.739a4.665 4.665 0 0 0 0-1.473c-.077-.405-.14-.074-.14.736m196.712 3.274c0 .63.067.887.15.572.082-.315.082-.83 0-1.145-.083-.315-.15-.058-.15.573m-197.685 10.31c.002 1.08.063 1.483.136.895.072-.588.07-1.472-.004-1.964-.074-.492-.134-.01-.132 1.07" fill="#44748c"/></g></svg>