<?xml version="1.0" encoding="UTF-8"?>
<!DOCTYPE svg PUBLIC "-//W3C//DTD SVG 1.1//EN" "http://www.w3.org/Graphics/SVG/1.1/DTD/svg11.dtd">
<svg xmlns="http://www.w3.org/2000/svg" version="1.1" width="1108px" height="304px" style="shape-rendering:geometricPrecision; text-rendering:geometricPrecision; image-rendering:optimizeQuality; fill-rule:evenodd; clip-rule:evenodd" xmlns:xlink="http://www.w3.org/1999/xlink">
<g><path style="opacity:0.967" fill="#58585a" d="M 68.5,113.5 C 70.3967,116.947 72.5633,120.28 75,123.5C 76.129,125.141 77.629,126.141 79.5,126.5C 79.9925,128.819 80.9925,130.819 82.5,132.5C 96.4015,161.04 100.735,191.04 95.5,222.5C 96.1738,225.842 96.8405,229.175 97.5,232.5C 91.8597,232.429 87.3597,230.096 84,225.5C 80.5396,215.996 77.5396,206.329 75,196.5C 72.9841,190.297 69.8175,184.797 65.5,180C 60.0833,178.58 58.4166,180.414 60.5,185.5C 56.6783,211.53 63.1783,234.863 80,255.5C 95.446,270.773 109.946,286.773 123.5,303.5C 121.167,303.5 118.833,303.5 116.5,303.5C 73.172,292.021 43.0053,265.354 26,223.5C 1.44257,161.738 9.44257,104.738 50,52.5C 68.9785,31.0952 91.8118,15.2618 118.5,5C 121.442,3.8756 124.442,3.54227 127.5,4C 96.3478,26.4764 72.5145,54.9764 56,89.5C 55.4561,99.8296 59.6228,107.83 68.5,113.5 Z"/></g>
<g><path style="opacity:0.967" fill="#58585a" d="M 268.5,303.5 C 266.167,303.5 263.833,303.5 261.5,303.5C 275.778,286.053 290.945,269.387 307,253.5C 323.223,232.609 329.056,209.276 324.5,183.5C 324.5,182.167 324.5,180.833 324.5,179.5C 322.801,179.34 321.134,179.506 319.5,180C 314.051,186.367 311.051,193.534 310.5,201.5C 309.388,203.599 308.721,205.933 308.5,208.5C 307.503,208.47 306.836,208.97 306.5,210C 305.441,217.866 302.108,224.532 296.5,230C 294.846,230.608 293.179,231.108 291.5,231.5C 290.209,231.737 289.209,231.404 288.5,230.5C 288.898,213.537 288.898,196.537 288.5,179.5C 288.298,177.05 288.631,174.717 289.5,172.5C 292.076,159.279 296.576,146.613 303,134.5C 308.637,125.707 314.804,117.374 321.5,109.5C 329.614,103.041 331.781,95.0406 328,85.5C 310.746,53.4134 287.579,26.4134 258.5,4.5C 262.269,3.57285 265.936,4.07285 269.5,6C 318.657,25.8217 351.157,60.9884 367,111.5C 380.975,166.961 370.642,217.294 336,262.5C 317.819,283.497 295.319,297.164 268.5,303.5 Z"/></g>
<g><path style="opacity:0.922" fill="#67e3e7" d="M 182.5,17.5 C 205.524,16.4306 227.524,20.5972 248.5,30C 250.037,31.1096 250.703,32.6096 250.5,34.5C 239.442,35.0456 228.442,36.2123 217.5,38C 205.811,40.6045 194.144,42.9378 182.5,45C 173.877,42.3349 165.21,39.6682 156.5,37C 151.67,34.2303 149.67,30.2303 150.5,25C 160.991,21.2088 171.657,18.7088 182.5,17.5 Z"/></g>
<g><path style="opacity:1" fill="#52d7df" d="M 473.5,29.5 C 481.044,29.2164 488.544,29.5498 496,30.5C 503.325,35.4924 509.658,41.4924 515,48.5C 531.606,78.3786 546.606,109.045 560,140.5C 562.209,142.373 564.042,144.54 565.5,147C 576.922,149.004 579.589,155.004 573.5,165C 567.694,167.617 561.694,169.617 555.5,171C 538.804,171.853 522.137,171.52 505.5,170C 502.079,168.525 498.746,166.859 495.5,165C 493.374,161.361 493.041,157.528 494.5,153.5C 497.099,150.679 500.266,148.679 504,147.5C 505.753,142.53 503.919,139.363 498.5,138C 492.917,137.809 487.417,137.309 482,136.5C 477,137.833 472,137.833 467,136.5C 458.921,135.912 455.255,139.578 456,147.5C 459.653,148.964 463.153,150.797 466.5,153C 469.114,157.16 468.781,161.16 465.5,165C 460.504,167.885 455.171,169.885 449.5,171C 438.418,171.95 427.418,171.45 416.5,169.5C 413.429,168.215 410.596,166.549 408,164.5C 405.095,158.57 406.429,153.903 412,150.5C 414.995,149.724 417.828,148.557 420.5,147C 424.273,143.282 427.44,139.116 430,134.5C 437.828,117.021 445.662,99.5212 453.5,82C 458.527,69.0191 461.36,55.5191 462,41.5C 464.663,36.3382 468.496,32.3382 473.5,29.5 Z M 478.5,84.5 C 480.877,85.7856 483.044,87.4522 485,89.5C 488.953,95.7412 492.12,102.408 494.5,109.5C 494.167,109.833 493.833,110.167 493.5,110.5C 484.97,111.822 476.47,111.822 468,110.5C 468.015,107.43 468.682,104.43 470,101.5C 472.345,95.4773 475.178,89.8106 478.5,84.5 Z"/></g>
<g><path style="opacity:1" fill="#52d7df" d="M 604.5,29.5 C 617.022,29.2359 629.522,29.5693 642,30.5C 648.793,31.6364 654.126,34.9698 658,40.5C 658.705,47.5583 655.538,52.0583 648.5,54C 646.294,55.6839 644.794,57.8505 644,60.5C 642,87.1667 642,113.833 644,140.5C 644.374,141.416 644.874,142.25 645.5,143C 649.248,145.624 653.081,148.124 657,150.5C 659.7,156.267 658.533,161.1 653.5,165C 641.213,170.21 628.379,172.377 615,171.5C 603.464,172.624 592.631,170.457 582.5,165C 579.034,160.714 578.701,156.214 581.5,151.5C 586.721,149.779 590.054,146.279 591.5,141C 592.024,136.931 592.69,132.931 593.5,129C 593.114,119.79 593.114,110.456 593.5,101C 593.642,88.1122 592.975,75.2789 591.5,62.5C 588.145,57.6445 583.978,53.6445 579,50.5C 575.686,43.4276 577.519,38.261 584.5,35C 591.206,32.7836 597.872,30.9502 604.5,29.5 Z"/></g>
<g><path style="opacity:1" fill="#52d7df" d="M 725.5,29.5 C 734.506,29.3336 743.506,29.5002 752.5,30C 759.591,32.4739 766.591,35.1406 773.5,38C 777.248,38.3872 780.915,37.8872 784.5,36.5C 789.081,37.7919 793.081,40.1253 796.5,43.5C 798.173,46.8685 799.84,50.2019 801.5,53.5C 803.046,59.0393 803.88,64.7059 804,70.5C 804.347,53.6384 811.18,40.1384 824.5,30C 859.873,30.4988 895.206,30.6654 930.5,30.5C 946.744,41.8937 952.077,57.227 946.5,76.5C 939.868,82.8414 932.201,84.1747 923.5,80.5C 921.851,78.3501 920.018,76.3501 918,74.5C 915.406,69.8583 912.572,65.3583 909.5,61C 904.912,58.8812 902.079,60.3812 901,65.5C 900.333,88.5 900.333,111.5 901,134.5C 901.452,137.149 902.286,139.649 903.5,142C 908.293,144.918 913.126,147.751 918,150.5C 919.879,157.101 918.046,162.268 912.5,166C 907.365,167.627 902.199,169.127 897,170.5C 881.483,171.909 865.983,171.742 850.5,170C 846.654,168.368 842.654,167.034 838.5,166C 831.639,162.742 829.473,157.575 832,150.5C 836.667,147.833 841.333,145.167 846,142.5C 846.909,138.46 847.909,134.46 849,130.5C 849.914,112.503 850.747,94.503 851.5,76.5C 851.572,70.9266 850.572,65.5933 848.5,60.5C 846.249,59.1353 844.249,59.4686 842.5,61.5C 837.872,68.4188 832.539,74.7522 826.5,80.5C 816.24,85.3378 809.073,82.6711 805,72.5C 803.621,84.332 797.121,91.332 785.5,93.5C 781.205,93.4591 777.538,91.9591 774.5,89C 770.035,83.8894 766.201,78.3894 763,72.5C 753.954,60.2069 742.121,56.2069 727.5,60.5C 725.424,62.2877 723.257,63.9544 721,65.5C 715.361,75.2516 714.027,85.5849 717,96.5C 724.934,128.882 744.767,140.049 776.5,130C 780.639,127.361 784.639,124.528 788.5,121.5C 796.353,120.844 800.353,124.678 800.5,133C 799.967,138 798.801,142.833 797,147.5C 794.286,151.621 791.119,155.287 787.5,158.5C 775.38,163.151 763.046,167.318 750.5,171C 717.812,174.648 692.146,163.148 673.5,136.5C 660.819,113.445 660.319,90.1119 672,66.5C 685.057,47.2782 702.891,34.9448 725.5,29.5 Z"/></g>
<g><path style="opacity:1" fill="#52d7df" d="M 997.5,29.5 C 1006.84,29.3335 1016.17,29.5002 1025.5,30C 1030.74,31.7806 1036.07,33.2806 1041.5,34.5C 1044.83,33.5433 1048,32.2099 1051,30.5C 1067.36,38.8818 1074.52,52.2151 1072.5,70.5C 1070.2,75.2363 1066.37,77.5696 1061,77.5C 1057.24,77.4136 1053.74,76.4136 1050.5,74.5C 1045.07,67.8683 1038.57,62.535 1031,58.5C 1024.87,56.1691 1018.71,56.0025 1012.5,58C 1009.57,61.2572 1008.74,65.0906 1010,69.5C 1017.18,75.0073 1025.34,78.174 1034.5,79C 1046.69,83.0946 1057.69,89.2613 1067.5,97.5C 1075.12,107.946 1077.62,119.612 1075,132.5C 1067.58,153.87 1052.58,166.537 1030,170.5C 1009.1,173.287 988.766,171.287 969,164.5C 965.993,162.497 962.993,160.497 960,158.5C 953.253,146.771 950.587,134.104 952,120.5C 954.883,114.162 959.383,112.495 965.5,115.5C 970.491,122.138 975.491,128.805 980.5,135.5C 990.811,143.779 1002.48,146.279 1015.5,143C 1020.68,140.109 1021.68,136.109 1018.5,131C 1015.56,129.687 1012.72,128.187 1010,126.5C 996.985,122.999 984.819,117.666 973.5,110.5C 949.331,88.8159 948.331,66.1492 970.5,42.5C 978.786,36.4195 987.786,32.0862 997.5,29.5 Z"/></g>
<g><path style="opacity:0.951" fill="#67e3e7" d="M 134.5,30.5 C 137.187,30.3359 139.854,30.5026 142.5,31C 146.015,34.6824 149.682,38.1824 153.5,41.5C 158.054,46.4805 158.554,51.8139 155,57.5C 140.413,67.2096 125.913,77.0429 111.5,87C 99.6307,85.9317 90.9641,90.5984 85.5,101C 80.4046,103.7 75.0712,105.367 69.5,106C 67.6041,104.192 67.1041,102.025 68,99.5C 82.244,68.7579 104.411,45.7579 134.5,30.5 Z"/></g>
<g><path style="opacity:0.968" fill="#67e3e7" d="M 236.5,40.5 C 241.297,40.1211 245.964,40.6211 250.5,42C 252.587,45.5082 254.92,48.8416 257.5,52C 260.993,53.7906 264.659,55.124 268.5,56C 269.46,57.4194 270.293,58.9194 271,60.5C 275.084,84.3928 274.084,108.059 268,131.5C 264.434,137.364 259.267,139.53 252.5,138C 242.164,131.163 231.497,124.83 220.5,119C 218.613,115.341 217.113,111.508 216,107.5C 214.5,106 213,104.5 211.5,103C 207.15,101.551 202.984,99.718 199,97.5C 195.108,88.7137 190.441,80.3804 185,72.5C 183.412,64.5753 184.912,57.4087 189.5,51C 195.019,48.8698 200.686,47.2031 206.5,46C 216.626,44.0726 226.626,42.2392 236.5,40.5 Z"/></g>
<g><path style="opacity:0.956" fill="#52d6df" d="M 321.5,109.5 C 314.804,117.374 308.637,125.707 303,134.5C 296.576,146.613 292.076,159.279 289.5,172.5C 285.455,168.62 281.955,164.287 279,159.5C 279.108,155.843 279.108,152.177 279,148.5C 276.585,144.263 274.419,139.93 272.5,135.5C 276.889,120.833 279.222,105.833 279.5,90.5C 278.865,77.7347 277.698,65.0681 276,52.5C 277.599,50.9644 279.433,50.4644 281.5,51C 299.867,67.1757 313.2,86.6757 321.5,109.5 Z"/></g>
<g><path style="opacity:0.936" fill="#67e3e7" d="M 155.5,65.5 C 163.084,68.6933 170.917,71.3599 179,73.5C 183.413,81.995 188.08,90.3283 193,98.5C 193.877,102.745 192.21,105.412 188,106.5C 168.192,101.115 148.025,97.9488 127.5,97C 124.666,96.9546 122.166,96.1213 120,94.5C 119.685,93.0922 120.018,91.7589 121,90.5C 131.594,80.7987 143.094,72.4653 155.5,65.5 Z"/></g>
<g><path style="opacity:0.98" fill="#66e2e7" d="M 60.5,185.5 C 58.4166,180.414 60.0833,178.58 65.5,180C 69.8175,184.797 72.9841,190.297 75,196.5C 77.5396,206.329 80.5396,215.996 84,225.5C 87.3597,230.096 91.8597,232.429 97.5,232.5C 96.8405,229.175 96.1738,225.842 95.5,222.5C 100.735,191.04 96.4015,161.04 82.5,132.5C 85.6149,127.883 89.2815,123.716 93.5,120C 97.1895,119.419 100.856,119.585 104.5,120.5C 106.577,120.308 108.577,119.808 110.5,119C 114.479,115.352 118.145,111.352 121.5,107C 123.087,106.138 124.754,105.471 126.5,105C 146.183,104.377 165.516,106.71 184.5,112C 185.333,112.833 186.167,113.667 187,114.5C 187.748,118.509 189.248,122.176 191.5,125.5C 196.302,128.045 200.802,131.045 205,134.5C 210.787,155.899 212.453,177.566 210,199.5C 205.318,202.007 200.985,205.007 197,208.5C 198.351,218.975 194.184,226.141 184.5,230C 154.657,243.272 123.657,246.939 91.5,241C 88.0976,239.6 85.2643,237.433 83,234.5C 72.1433,219.788 64.6433,203.454 60.5,185.5 Z"/></g>
<g><path style="opacity:0.859" fill="#66e1e6" d="M 79.5,126.5 C 77.629,126.141 76.129,125.141 75,123.5C 72.5633,120.28 70.3967,116.947 68.5,113.5C 73.898,112.484 79.2314,111.15 84.5,109.5C 87.0894,110.722 87.9228,112.722 87,115.5C 84.49,119.195 81.99,122.862 79.5,126.5 Z"/></g>
<g><path style="opacity:0.938" fill="#52d7df" d="M 215.5,124.5 C 227.763,129.08 239.096,135.413 249.5,143.5C 250.019,147.449 250.186,151.449 250,155.5C 251.588,158.174 252.755,161.008 253.5,164C 246.197,179.234 236.197,192.567 223.5,204C 220.975,204.896 218.808,204.396 217,202.5C 217.715,189.165 217.382,175.832 216,162.5C 215.343,153.057 213.51,143.89 210.5,135C 210.265,132.606 210.765,130.106 212,127.5C 213.145,126.364 214.312,125.364 215.5,124.5 Z"/></g>
<g><path style="opacity:0.972" fill="#52d6df" d="M 288.5,179.5 C 288.898,196.537 288.898,213.537 288.5,230.5C 287.249,231.472 287.582,232.139 289.5,232.5C 290.416,232.457 291.083,232.124 291.5,231.5C 293.179,231.108 294.846,230.608 296.5,230C 302.108,224.532 305.441,217.866 306.5,210C 306.836,208.97 307.503,208.47 308.5,208.5C 310.877,212.144 311.711,216.144 311,220.5C 284.293,265.275 244.793,287.942 192.5,288.5C 191.369,286.926 191.202,285.259 192,283.5C 200.303,267.55 206.97,250.883 212,233.5C 215.516,231.074 218.849,228.407 222,225.5C 223.98,220.723 224.98,215.723 225,210.5C 237.886,198.786 248.72,185.452 257.5,170.5C 262.786,166.407 268.786,164.907 275.5,166C 280.037,170.369 284.37,174.869 288.5,179.5 Z"/></g>
<g><path style="opacity:0.913" fill="#52d5de" d="M 324.5,183.5 C 323.249,191.087 321.083,198.42 318,205.5C 316.806,207.525 315.306,207.859 313.5,206.5C 312.237,204.971 311.237,203.305 310.5,201.5C 311.051,193.534 314.051,186.367 319.5,180C 321.134,179.506 322.801,179.34 324.5,179.5C 324.5,180.833 324.5,182.167 324.5,183.5 Z"/></g>
<g><path style="opacity:0.72" fill="#575859" d="M 559.5,208.5 C 574.035,206.056 581.702,212.056 582.5,226.5C 580.167,226.5 577.833,226.5 575.5,226.5C 574.772,216.774 569.772,213.44 560.5,216.5C 555.523,221.08 555.19,226.08 559.5,231.5C 567.141,235.897 574.308,240.897 581,246.5C 586.722,265.778 579.556,274.612 559.5,273C 551.969,269.555 547.969,263.722 547.5,255.5C 550.187,255.336 552.854,255.503 555.5,256C 556.685,264.831 561.685,268.164 570.5,266C 575.758,262.401 577.258,257.568 575,251.5C 568.471,246.145 561.638,241.145 554.5,236.5C 549.225,230.328 548.059,223.328 551,215.5C 553.779,212.867 556.612,210.534 559.5,208.5 Z"/></g>
<g><path style="opacity:0.704" fill="#575859" d="M 726.5,208.5 C 735.841,206.552 743.175,209.385 748.5,217C 749.975,220.35 750.642,223.85 750.5,227.5C 748.167,227.5 745.833,227.5 743.5,227.5C 742.977,216.943 737.643,213.11 727.5,216C 725.981,217.351 724.648,218.851 723.5,220.5C 722.334,233.821 722.167,247.154 723,260.5C 728.52,268.955 734.854,269.622 742,262.5C 742.986,260.222 743.82,257.889 744.5,255.5C 746.833,254.167 749.167,254.167 751.5,255.5C 749.112,271.037 740.279,276.704 725,272.5C 720.914,270.084 717.914,266.751 716,262.5C 715.167,248.155 715.334,233.822 716.5,219.5C 718.486,214.518 721.819,210.851 726.5,208.5 Z"/></g>
<g><path style="opacity:0.72" fill="#575859" d="M 822.5,208.5 C 837.024,206.043 844.691,212.043 845.5,226.5C 843.167,226.5 840.833,226.5 838.5,226.5C 837.706,216.94 832.706,213.607 823.5,216.5C 821.562,218.799 819.896,221.299 818.5,224C 822.7,231.795 829.034,237.295 837.5,240.5C 839.5,243.167 841.833,245.5 844.5,247.5C 849.12,258.812 846.12,267.312 835.5,273C 821.227,275.551 812.894,269.718 810.5,255.5C 813.167,255.5 815.833,255.5 818.5,255.5C 818.404,262.571 821.904,266.238 829,266.5C 838.22,265.361 841.22,260.361 838,251.5C 831.471,246.145 824.638,241.145 817.5,236.5C 808.272,225.212 809.939,215.879 822.5,208.5 Z"/></g>
<g><path style="opacity:0.713" fill="#575859" d="M 865.5,208.5 C 876.784,206.182 884.618,210.182 889,220.5C 891,234.167 891,247.833 889,261.5C 884.452,272.589 876.285,276.422 864.5,273C 862.595,271.13 860.428,269.63 858,268.5C 853.141,260.039 851.308,250.873 852.5,241C 851.902,232.541 853.069,224.375 856,216.5C 858.795,213.189 861.961,210.523 865.5,208.5 Z M 867.5,215.5 C 874.396,213.78 879.23,216.113 882,222.5C 882.667,234.5 882.667,246.5 882,258.5C 881.837,260.676 881.004,262.509 879.5,264C 874.44,267.222 869.44,267.222 864.5,264C 863.113,261.955 861.946,259.788 861,257.5C 860.333,246.5 860.333,235.5 861,224.5C 862.256,220.758 864.423,217.758 867.5,215.5 Z"/></g>
<g><path style="opacity:0.701" fill="#575859" d="M 910.5,208.5 C 925.27,206.428 933.27,212.762 934.5,227.5C 932.167,227.5 929.833,227.5 927.5,227.5C 926.477,216.662 920.81,212.828 910.5,216C 909.696,217.771 908.529,219.271 907,220.5C 905.443,232.451 905.109,244.451 906,256.5C 907.28,265.353 912.28,268.687 921,266.5C 924.725,263.446 927.225,259.613 928.5,255C 930.833,254.333 933.167,254.333 935.5,255C 932.821,270.75 923.655,276.583 908,272.5C 906.004,270.339 903.838,268.339 901.5,266.5C 900.134,263.308 899.301,259.974 899,256.5C 898.333,246.167 898.333,235.833 899,225.5C 899.185,217.181 903.018,211.515 910.5,208.5 Z"/></g>
<g><path style="opacity:0.654" fill="#575859" d="M 1067.5,208.5 C 1068.38,208.369 1069.04,208.702 1069.5,209.5C 1064.4,222.036 1059.57,234.703 1055,247.5C 1054.82,256.078 1054.32,264.578 1053.5,273C 1050.9,273.769 1048.4,273.602 1046,272.5C 1045.67,264.167 1045.33,255.833 1045,247.5C 1040.66,236.143 1036.33,224.81 1032,213.5C 1031.52,214.448 1031.35,215.448 1031.5,216.5C 1026.82,216.334 1022.15,216.501 1017.5,217C 1018.66,235.426 1018.83,253.926 1018,272.5C 1015.33,273.833 1012.67,273.833 1010,272.5C 1009.5,253.836 1009.33,235.17 1009.5,216.5C 1005.17,216.5 1000.83,216.5 996.5,216.5C 996.5,214.167 996.5,211.833 996.5,209.5C 1010.66,209.498 1024.66,209.665 1038.5,210C 1042.33,220.143 1046.16,230.31 1050,240.5C 1053.87,230.57 1057.53,220.57 1061,210.5C 1063.28,209.883 1065.44,209.216 1067.5,208.5 Z"/></g>
<g><path style="opacity:0.711" fill="#575859" d="M 433.5,209.5 C 436.5,209.5 439.5,209.5 442.5,209.5C 447.647,230.739 452.98,251.906 458.5,273C 455.854,273.497 453.187,273.664 450.5,273.5C 449.689,267.927 448.189,262.594 446,257.5C 440.667,258.833 435.333,258.833 430,257.5C 427.886,262.618 426.386,267.951 425.5,273.5C 423.167,273.5 420.833,273.5 418.5,273.5C 423.253,252.061 428.253,230.728 433.5,209.5 Z M 437.5,221.5 C 440.364,231.11 443.031,240.943 445.5,251C 440.5,251.667 435.5,251.667 430.5,251C 432.211,244.764 434.044,238.597 436,232.5C 436.936,228.886 437.436,225.22 437.5,221.5 Z"/></g>
<g><path style="opacity:0.672" fill="#575859" d="M 463.5,209.5 C 471.174,209.334 478.841,209.5 486.5,210C 490.235,211.73 493.402,214.23 496,217.5C 498.522,226.163 497.856,234.497 494,242.5C 491.257,244.788 488.423,246.955 485.5,249C 490.446,256.678 495.113,264.511 499.5,272.5C 496.894,273.652 494.227,273.818 491.5,273C 487.473,265.784 483.307,258.617 479,251.5C 476.847,249.556 474.347,249.056 471.5,250C 472.647,257.42 472.813,264.92 472,272.5C 469.281,273.444 466.448,273.777 463.5,273.5C 463.5,252.167 463.5,230.833 463.5,209.5 Z M 471.5,217.5 C 488.457,214.195 494.124,220.862 488.5,237.5C 483.565,241.59 477.899,243.09 471.5,242C 472.828,233.735 472.828,225.568 471.5,217.5 Z"/></g>
<g><path style="opacity:0.72" fill="#575859" d="M 505.5,209.5 C 507.833,209.5 510.167,209.5 512.5,209.5C 512.333,225.503 512.5,241.503 513,257.5C 516.348,266.134 522.182,268.301 530.5,264C 531.701,263.097 532.535,261.931 533,260.5C 533.5,243.503 533.667,226.503 533.5,209.5C 536.167,209.5 538.833,209.5 541.5,209.5C 541.93,227.214 541.43,244.881 540,262.5C 535.075,272.817 527.075,276.15 516,272.5C 514.414,270.956 512.58,269.789 510.5,269C 509.035,266.57 507.702,264.07 506.5,261.5C 505.5,244.179 505.167,226.846 505.5,209.5 Z"/></g>
<g><path style="opacity:0.763" fill="#575859" d="M 591.5,209.5 C 593.833,209.5 596.167,209.5 598.5,209.5C 598.5,218.833 598.5,228.167 598.5,237.5C 605.167,237.5 611.833,237.5 618.5,237.5C 618.5,228.167 618.5,218.833 618.5,209.5C 620.833,209.5 623.167,209.5 625.5,209.5C 625.5,230.833 625.5,252.167 625.5,273.5C 623.167,273.5 620.833,273.5 618.5,273.5C 618.5,263.833 618.5,254.167 618.5,244.5C 611.833,244.5 605.167,244.5 598.5,244.5C 598.5,254.167 598.5,263.833 598.5,273.5C 596.167,273.5 593.833,273.5 591.5,273.5C 591.5,252.167 591.5,230.833 591.5,209.5 Z"/></g>
<g><path style="opacity:0.706" fill="#575859" d="M 647.5,209.5 C 650.167,209.5 652.833,209.5 655.5,209.5C 659.875,227.336 664.708,245.003 670,262.5C 670.936,266.114 671.436,269.78 671.5,273.5C 669.167,273.5 666.833,273.5 664.5,273.5C 662.819,268.279 661.319,262.945 660,257.5C 654.333,258.833 648.667,258.833 643,257.5C 642.128,262.195 641.128,266.861 640,271.5C 637.519,273.314 634.685,273.98 631.5,273.5C 637.142,252.267 642.475,230.933 647.5,209.5 Z M 651.5,220.5 C 653.338,230.844 656.005,241.011 659.5,251C 654.511,251.499 649.511,251.666 644.5,251.5C 647.459,241.381 649.792,231.048 651.5,220.5 Z"/></g>
<g><path style="opacity:0.594" fill="#575859" d="M 697.5,209.5 C 700.448,209.223 703.281,209.556 706,210.5C 706.667,230.833 706.667,251.167 706,271.5C 703.544,273.321 700.711,273.988 697.5,273.5C 697.5,252.167 697.5,230.833 697.5,209.5 Z"/></g>
<g><path style="opacity:0.753" fill="#575859" d="M 754.5,209.5 C 765.833,209.5 777.167,209.5 788.5,209.5C 788.5,211.833 788.5,214.167 788.5,216.5C 783.901,216.8 779.401,216.467 775,215.5C 774.5,234.83 774.333,254.164 774.5,273.5C 772.167,273.5 769.833,273.5 767.5,273.5C 767.667,254.164 767.5,234.83 767,215.5C 762.934,216.464 758.767,216.797 754.5,216.5C 754.5,214.167 754.5,211.833 754.5,209.5 Z"/></g>
<g><path style="opacity:0.761" fill="#575859" d="M 942.5,209.5 C 944.833,209.5 947.167,209.5 949.5,209.5C 949.5,230.833 949.5,252.167 949.5,273.5C 947.167,273.5 944.833,273.5 942.5,273.5C 942.5,252.167 942.5,230.833 942.5,209.5 Z"/></g>
<g><path style="opacity:0.694" fill="#575859" d="M 961.5,209.5 C 971.833,209.5 982.167,209.5 992.5,209.5C 992.5,211.5 992.5,213.5 992.5,215.5C 984.472,215.169 976.472,215.502 968.5,216.5C 969.833,223.167 969.833,229.833 968.5,236.5C 975.811,237.331 983.144,237.831 990.5,238C 990.957,238.414 991.291,238.914 991.5,239.5C 991.167,240.833 990.833,242.167 990.5,243.5C 983.189,244.331 975.856,244.831 968.5,245C 969.819,251.803 969.819,258.637 968.5,265.5C 976.807,266.498 985.14,266.831 993.5,266.5C 993.5,268.833 993.5,271.167 993.5,273.5C 982.833,273.5 972.167,273.5 961.5,273.5C 961.5,252.167 961.5,230.833 961.5,209.5 Z"/></g>
<g><path style="opacity:0.949" fill="#52d7df" d="M 196.5,229.5 C 200.833,228.535 203.833,230.035 205.5,234C 200.743,253.279 193.077,271.279 182.5,288C 150.928,286.642 123.428,275.142 100,253.5C 98.9914,251.975 98.4914,250.308 98.5,248.5C 133.31,252.48 165.977,246.146 196.5,229.5 Z"/></g>
<g><path style="opacity:1" fill="#568f93" d="M 288.5,230.5 C 289.209,231.404 290.209,231.737 291.5,231.5C 291.083,232.124 290.416,232.457 289.5,232.5C 287.582,232.139 287.249,231.472 288.5,230.5 Z"/></g>
</svg>
